<?xml version="1.0" encoding="UTF-8" standalone="no"?>
<!-- Created with Inkscape (http://www.inkscape.org/) -->

<svg
   width="297mm"
   height="210mm"
   viewBox="0 0 297 210"
   version="1.1"
   id="svg1"
   inkscape:export-filename="image.pdf"
   inkscape:export-xdpi="96"
   inkscape:export-ydpi="96"
   inkscape:version="1.4 (86a8ad7, 2024-10-11)"
   sodipodi:docname="BannerPrint.svg"
   xmlns:inkscape="http://www.inkscape.org/namespaces/inkscape"
   xmlns:sodipodi="http://sodipodi.sourceforge.net/DTD/sodipodi-0.dtd"
   xmlns="http://www.w3.org/2000/svg"
   xmlns:svg="http://www.w3.org/2000/svg">
  <sodipodi:namedview
     id="namedview1"
     pagecolor="#505050"
     bordercolor="#eeeeee"
     borderopacity="1"
     inkscape:showpageshadow="0"
     inkscape:pageopacity="0"
     inkscape:pagecheckerboard="0"
     inkscape:deskcolor="#505050"
     inkscape:document-units="mm"
     inkscape:zoom="0.35945918"
     inkscape:cx="1116.9558"
     inkscape:cy="627.33132"
     inkscape:window-width="1920"
     inkscape:window-height="1009"
     inkscape:window-x="-8"
     inkscape:window-y="-8"
     inkscape:window-maximized="1"
     inkscape:current-layer="layer1">
    <inkscape:page
       x="0"
       y="0"
       width="297"
       height="210"
       id="page1"
       margin="0"
       bleed="0" />
    <inkscape:page
       x="297"
       y="209.99998"
       width="297"
       height="209.99998"
       id="page2"
       margin="0"
       bleed="0" />
    <inkscape:page
       x="0"
       y="210"
       width="297"
       height="209.99998"
       id="page3"
       margin="0"
       bleed="0"
       inkscape:export-filename="BannerCutTemplate.png"
       inkscape:export-xdpi="96"
       inkscape:export-ydpi="96" />
    <inkscape:page
       x="-461.43994"
       y="71.8992"
       width="0"
       height="0"
       id="page4"
       margin="0"
       bleed="0" />
    <inkscape:page
       x="297"
       y="0"
       width="297"
       height="209.99998"
       id="page5"
       margin="0"
       bleed="0" />
  </sodipodi:namedview>
  <defs
     id="defs1" />
  <g
     inkscape:label="Calque 1"
     inkscape:groupmode="layer"
     id="layer1"
     transform="translate(120.71375,-323.13012)">
    <path
       id="path10-8"
       style="font-style:normal;font-weight:400;font-size:29.1042px;font-family:'MS Shell Dlg 2';fill:none;stroke:#000000;stroke-width:0.600001;stroke-linecap:round;stroke-linejoin:bevel;stroke-dasharray:none;stroke-dashoffset:0;stroke-opacity:1;fill-opacity:1"
       d="M 31.713436,377.68968 -98.367003,391.9317 c -3.042997,0.333 -5.346967,2.90298 -5.346967,5.96398 v 288.6387 h 559.99992 v -288.6387 c 0,-3.061 -2.30396,-5.63098 -5.34696,-5.96398 L 320.85908,377.68968 c -0.63201,-0.069 -1.27095,-0.038 -1.89394,0.094 l -129.65565,27.39987 c -0.4079,0.086 -0.82386,0.13023 -1.24076,0.13023 h -23.56498 c -0.41688,0 -0.83283,-0.0442 -1.24074,-0.13023 L 33.607376,377.78373 c -0.62302,-0.132 -1.26193,-0.16305 -1.89394,-0.094 z m -44.792113,8.73125 c 1.21401,0 2.19885,0.98383 2.19885,2.19883 0,1.214 -0.98484,2.19883 -2.19885,2.19883 -1.21499,0 -2.19935,-0.98483 -2.19935,-2.19883 0,-1.215 0.98436,-2.19883 2.19935,-2.19883 z m 378.729837,0 c 1.21502,0 2.19885,0.98383 2.19885,2.19883 0,1.214 -0.98383,2.19883 -2.19885,2.19883 -1.21399,0 -2.19882,-0.98483 -2.19882,-2.19883 0,-1.215 0.98483,-2.19883 2.19882,-2.19883 z m -294.434724,3.68866 c 1.17599,0 2.12857,0.95303 2.12857,2.12803 0,1.176 -0.95258,2.12907 -2.12857,2.12907 -1.17499,0 -2.12802,-0.95307 -2.12802,-2.12907 0,-1.175 0.95303,-2.12803 2.12802,-2.12803 z m 210.139614,0 c 1.17501,0 2.12804,0.95303 2.12804,2.12803 0,1.176 -0.95303,2.12907 -2.12804,2.12907 -1.17599,0 -2.12905,-0.95307 -2.12905,-2.12907 0,-1.175 0.95306,-2.12803 2.12905,-2.12803 z m -373.867083,5.10305 c 1.197001,0 2.167308,0.97031 2.167308,2.16731 0,1.19699 -0.970307,2.16679 -2.167308,2.16679 -1.195996,0 -2.165747,-0.9698 -2.165747,-2.16679 0,-1.197 0.969751,-2.16731 2.165747,-2.16731 z m 537.594053,0 c 1.196,0 2.16628,0.97031 2.16628,2.16731 0,1.19699 -0.97028,2.16679 -2.16628,2.16679 -1.197,0 -2.16681,-0.9698 -2.16681,-2.16679 0,-1.197 0.96981,-2.16731 2.16681,-2.16731 z m -295.71116,11.53831 c 1.13842,0 2.06137,0.92286 2.06137,2.06086 0,1.139 -0.92295,2.06189 -2.06137,2.06189 -1.1384,0 -2.06137,-0.92289 -2.06137,-2.06189 0,-1.138 0.92297,-2.06086 2.06137,-2.06086 z m 53.82876,0 c 1.1384,0 2.06137,0.92286 2.06137,2.06086 0,1.139 -0.92297,2.06189 -2.06137,2.06189 -1.13839,0 -2.06137,-0.92289 -2.06137,-2.06189 0,-1.138 0.92298,-2.06086 2.06137,-2.06086 z" />
  </g>
</svg>
