<?xml version="1.0" encoding="UTF-8" standalone="no"?>
<svg
   version="1.2"
   width="594mm"
   height="420mm"
   viewBox="0 0 5940 4200"
   id="svg32"
   sodipodi:docname="PatronFabric.svg"
   inkscape:version="1.4 (86a8ad7, 2024-10-11)"
   xmlns:inkscape="http://www.inkscape.org/namespaces/inkscape"
   xmlns:sodipodi="http://sodipodi.sourceforge.net/DTD/sodipodi-0.dtd"
   xmlns="http://www.w3.org/2000/svg"
   xmlns:svg="http://www.w3.org/2000/svg"
   xmlns:rdf="http://www.w3.org/1999/02/22-rdf-syntax-ns#"
   xmlns:cc="http://creativecommons.org/ns#"
   xmlns:dc="http://purl.org/dc/elements/1.1/">
  <sodipodi:namedview
     id="namedview32"
     pagecolor="#505050"
     bordercolor="#eeeeee"
     borderopacity="1"
     inkscape:showpageshadow="0"
     inkscape:pageopacity="0"
     inkscape:pagecheckerboard="0"
     inkscape:deskcolor="#505050"
     inkscape:document-units="mm"
     inkscape:zoom="0.35947751"
     inkscape:cx="1009.7989"
     inkscape:cy="791.42641"
     inkscape:window-width="1920"
     inkscape:window-height="1009"
     inkscape:window-x="1912"
     inkscape:window-y="-8"
     inkscape:window-maximized="1"
     inkscape:current-layer="Page002" />
  <title
     id="title1">FreeCAD SVG Export</title>
  <desc
     id="desc1">Drawing page: Page002 exported from FreeCAD document: banner_2</desc>
  <defs
     id="defs1" />
  <g
     id="Page002"
     inkscape:label="TechDraw"
     inkscape:groupmode="layer">
    <rect
       style="fill:#ffffff;stroke:#ffffff;stroke-width:5.60276;stroke-linecap:round"
       id="rect32"
       width="6494.397"
       height="4994.3975"
       x="-323.87326"
       y="-728.6853" />
    <g
       style="stroke:none"
       id="A4_Landscape_blank.svg"
       transform="scale(10)">
      <metadata
         id="metadata8">
        <rdf:RDF>
          <cc:Work
             rdf:about="">
            <dc:format>image/svg+xml</dc:format>
            <dc:type
               rdf:resource="http://purl.org/dc/dcmitype/StillImage" />
            <dc:title>FreeCAD SVG Export</dc:title>
          </cc:Work>
        </rdf:RDF>
      </metadata>
      <defs
         id="defs6" />
    </g>
    <g
       stroke-width="1"
       stroke-dasharray="4, 2"
       transform="translate(116.889,1528.01)"
       stroke="#ff0000"
       stroke-opacity="1"
       stroke-linejoin="bevel"
       font-size="29.1042px"
       font-family="'MS Shell Dlg 2'"
       stroke-linecap="square"
       font-weight="400"
       stroke-dashoffset="0"
       font-style="normal"
       fill="none"
       id="g1"
       style="fill-rule:evenodd">
      <rect
         vector-effect="non-scaling-stroke"
         x="0"
         y="0"
         width="0"
         height="0"
         id="rect1" />
    </g>
    <path
       id="path10"
       style="font-style:normal;font-weight:400;font-size:29.1042px;font-family:'MS Shell Dlg 2';fill:#ff5555;stroke:#ffffff;stroke-width:2;stroke-linecap:round;stroke-linejoin:bevel;stroke-opacity:1"
       d="M 1526.9263,625.84344 226.12199,768.26369 c -30.43,3.33 -53.4696,29.02977 -53.4696,59.63977 V 3714.2906 H 5772.6517 V 827.90346 c 0,-30.61 -23.0396,-56.30977 -53.4696,-59.63977 L 4418.3829,625.84344 c -6.32,-0.69 -12.7094,-0.37949 -18.9394,0.94051 L 3102.887,900.78273 c -4.079,0.86 -8.2386,1.30225 -12.4076,1.30225 h -235.6497 c -4.169,0 -8.3285,-0.44225 -12.4075,-1.30225 L 1545.8657,626.78395 c -6.23,-1.32 -12.6194,-1.63051 -18.9394,-0.94051 z m -447.921,87.3125 c 12.14,0 21.9884,9.83832 21.9884,21.98832 0,12.14 -9.8484,21.98832 -21.9884,21.98832 -12.15,0 -21.9935,-9.84832 -21.9935,-21.98832 0,-12.15 9.8435,-21.98832 21.9935,-21.98832 z m 3787.2986,0 c 12.15,0 21.9883,9.83832 21.9883,21.98832 0,12.14 -9.8383,21.98832 -21.9883,21.98832 -12.14,0 -21.9883,-9.84832 -21.9883,-21.98832 0,-12.15 9.8483,-21.98832 21.9883,-21.98832 z m -2944.3475,36.88664 c 11.76,0 21.2856,9.53035 21.2856,21.28035 0,11.76 -9.5256,21.29069 -21.2856,21.29069 -11.75,0 -21.2803,-9.53069 -21.2803,-21.29069 0,-11.75 9.5303,-21.28035 21.2803,-21.28035 z m 2101.3963,0 c 11.75,0 21.2804,9.53035 21.2804,21.28035 0,11.76 -9.5304,21.29069 -21.2804,21.29069 -11.76,0 -21.2906,-9.53069 -21.2906,-21.29069 0,-11.75 9.5306,-21.28035 21.2906,-21.28035 z M 284.68169,801.07305 c 11.97,0 21.6731,9.7031 21.6731,21.6731 0,11.97 -9.7031,21.66793 -21.6731,21.66793 -11.96,0 -21.6576,-9.69793 -21.6576,-21.66793 0,-11.97 9.6976,-21.6731 21.6576,-21.6731 z m 5375.94061,0 c 11.96,0 21.6628,9.7031 21.6628,21.6731 0,11.97 -9.7028,21.66793 -21.6628,21.66793 -11.97,0 -21.6679,-9.69793 -21.6679,-21.66793 0,-11.97 9.6979,-21.6731 21.6679,-21.6731 z M 2703.5108,916.45619 c 11.384,0 20.6137,9.22856 20.6137,20.60856 0,11.39 -9.2297,20.6189 -20.6137,20.6189 -11.384,0 -20.6137,-9.2289 -20.6137,-20.6189 0,-11.38 9.2297,-20.60856 20.6137,-20.60856 z m 538.2876,0 c 11.384,0 20.6137,9.22856 20.6137,20.60856 0,11.39 -9.2297,20.6189 -20.6137,20.6189 -11.384,0 -20.6138,-9.2289 -20.6138,-20.6189 0,-11.38 9.2298,-20.60856 20.6138,-20.60856 z" />
    <g
       stroke-width="2"
       transform="translate(116.889,1528.01)"
       stroke="#ff0000"
       stroke-opacity="1"
       stroke-linejoin="bevel"
       font-size="29.1042px"
       font-family="'MS Shell Dlg 2'"
       stroke-linecap="round"
       font-weight="400"
       font-style="normal"
       fill="none"
       id="g12"
       style="fill-rule:evenodd" />
    <g
       stroke-width="2"
       transform="translate(116.889,1528.01)"
       stroke="#ff0000"
       stroke-opacity="1"
       stroke-linejoin="bevel"
       font-size="29.1042px"
       font-family="'MS Shell Dlg 2'"
       stroke-linecap="round"
       font-weight="400"
       font-style="normal"
       fill="none"
       id="g13"
       style="fill-rule:evenodd" />
    <g
       stroke-width="2"
       transform="translate(116.889,1528.01)"
       stroke="#ff0000"
       stroke-opacity="1"
       stroke-linejoin="bevel"
       font-size="29.1042px"
       font-family="'MS Shell Dlg 2'"
       stroke-linecap="round"
       font-weight="400"
       font-style="normal"
       fill="none"
       id="g14"
       style="fill-rule:evenodd" />
    <g
       stroke-width="2"
       transform="translate(116.889,1528.01)"
       stroke="#ff0000"
       stroke-opacity="1"
       stroke-linejoin="bevel"
       font-size="29.1042px"
       font-family="'MS Shell Dlg 2'"
       stroke-linecap="round"
       font-weight="400"
       font-style="normal"
       fill="none"
       id="g15"
       style="fill-rule:evenodd" />
    <g
       stroke-width="2"
       transform="translate(116.889,1528.01)"
       stroke="#ff0000"
       stroke-opacity="1"
       stroke-linejoin="bevel"
       font-size="29.1042px"
       font-family="'MS Shell Dlg 2'"
       stroke-linecap="round"
       font-weight="400"
       font-style="normal"
       fill="none"
       id="g16"
       style="fill-rule:evenodd" />
    <g
       stroke-width="2"
       transform="translate(116.889,1528.01)"
       stroke="#ff0000"
       stroke-opacity="1"
       stroke-linejoin="bevel"
       font-size="29.1042px"
       font-family="'MS Shell Dlg 2'"
       stroke-linecap="round"
       font-weight="400"
       font-style="normal"
       fill="none"
       id="g17"
       style="fill-rule:evenodd" />
    <g
       stroke-width="2"
       transform="translate(116.889,1528.01)"
       stroke="#ff0000"
       stroke-opacity="1"
       stroke-linejoin="bevel"
       font-size="29.1042px"
       font-family="'MS Shell Dlg 2'"
       stroke-linecap="round"
       font-weight="400"
       font-style="normal"
       fill="none"
       id="g18"
       style="fill-rule:evenodd" />
    <g
       stroke-width="2"
       transform="translate(116.889,1528.01)"
       stroke="#ff0000"
       stroke-opacity="1"
       stroke-linejoin="bevel"
       font-size="29.1042px"
       font-family="'MS Shell Dlg 2'"
       stroke-linecap="round"
       font-weight="400"
       font-style="normal"
       fill="none"
       id="g19"
       style="fill-rule:evenodd" />
    <g
       stroke-width="2"
       transform="translate(116.889,1528.01)"
       stroke="#ff0000"
       stroke-opacity="1"
       stroke-linejoin="bevel"
       font-size="29.1042px"
       font-family="'MS Shell Dlg 2'"
       stroke-linecap="round"
       font-weight="400"
       font-style="normal"
       fill="none"
       id="g20"
       style="fill-rule:evenodd" />
    <g
       stroke-width="2"
       transform="translate(116.889,1528.01)"
       stroke="#ff0000"
       stroke-opacity="1"
       stroke-linejoin="bevel"
       font-size="29.1042px"
       font-family="'MS Shell Dlg 2'"
       stroke-linecap="round"
       font-weight="400"
       font-style="normal"
       fill="none"
       id="g21"
       style="fill-rule:evenodd" />
    <g
       stroke-width="2"
       transform="translate(116.889,1528.01)"
       stroke="#ff0000"
       stroke-opacity="1"
       stroke-linejoin="bevel"
       font-size="29.1042px"
       font-family="'MS Shell Dlg 2'"
       stroke-linecap="round"
       font-weight="400"
       font-style="normal"
       fill="none"
       id="g22"
       style="fill-rule:evenodd" />
    <g
       stroke-width="2"
       transform="translate(116.889,1528.01)"
       stroke="#ff0000"
       stroke-opacity="1"
       stroke-linejoin="bevel"
       font-size="29.1042px"
       font-family="'MS Shell Dlg 2'"
       stroke-linecap="round"
       font-weight="400"
       font-style="normal"
       fill="none"
       id="g23"
       style="fill-rule:evenodd" />
    <g
       stroke-width="2"
       transform="translate(116.889,1528.01)"
       stroke="#ff0000"
       stroke-opacity="1"
       stroke-linejoin="bevel"
       font-size="29.1042px"
       font-family="'MS Shell Dlg 2'"
       stroke-linecap="round"
       font-weight="400"
       font-style="normal"
       fill="none"
       id="g32"
       style="fill-rule:evenodd" />
  </g>
</svg>
